PathFileType	4	(X/Y/Z)	E:\MAC3D_DATA\2020_06_02_vinay\TPose1.trc																																																																
DataRate	CameraRate	NumFrames	NumMarkers	Units	OrigDataRate	OrigDataStartFrame	OrigNumFrames																																																												
1000	200	16	22	mm	200	63	498																																																												
Frame#	Time	RAsis			LAsis			RPsi			LPsi			RThigh1			RThigh2			RThigh3			RKneeOut			RKneeIn			LThigh1			LThigh2			LThigh3			LKneeOut			LKneeIn			MidAsis			MidPsi			MidPelvis			RHJC			LHJC			MidHJC			RKJC			LKJC		
		X1	Y1	Z1	X2	Y2	Z2	X3	Y3	Z3	X4	Y4	Z4	X5	Y5	Z5	X6	Y6	Z6	X7	Y7	Z7	X8	Y8	Z8	X9	Y9	Z9	X10	Y10	Z10	X11	Y11	Z11	X12	Y12	Z12	X13	Y13	Z13	X14	Y14	Z14	X15	Y15	Z15	X16	Y16	Z16	X17	Y17	Z17	X18	Y18	Z18	X19	Y19	Z19	X20	Y20	Z20	X21	Y21	Z21	X22	Y22	Z22
																																																																			
63	0.31	89.5013	1582.4	195.196	90.292	1582.38	-78.7686	211.978	1529.48	58.8202	66.2189	1602.57	54.9996	11.9832	1488.24	62.2492	241.493	1026.01	194.123	252.457	1030.69	-48.3065	54.1411	1070.06	115.523	54.2606	1066.7	20.5061	172.206	765.922	269.556	102.643	708.209	276.87	187.285	709.003	247.391	108.36	541.915	271.989	98.9488	525.96	160.67	193.854	777.744	-134.755	131.418	785.626	-146.946	143.995	714.662	-148.768	128.972	543.913	-145.157	106.968	526.116	-33.1554	22.1703	348.448	301.171	-0.807979	287.676	274.763	72.2971	316.35	292.138
64	0.315	89.4479	1582.36	195.211	90.2943	1582.39	-78.7393	211.96	1529.5	58.8671	66.1825	1602.58	55.0665	12.0028	1488.23	62.2721	241.46	1025.99	194.088	252.421	1030.71	-48.3187	54.1192	1070.07	115.532	54.2479	1066.72	20.518	172.207	765.908	269.555	102.663	708.196	276.856	187.314	708.937	247.322	108.263	541.804	271.797	98.9602	525.986	160.681	193.838	777.75	-134.78	131.415	785.647	-146.954	143.963	714.665	-148.746	128.993	543.898	-145.178	106.996	526.115	-33.1598	22.2117	348.454	301.098	-0.796205	287.686	274.756	72.3103	316.344	292.151
65	0.32	89.4412	1582.36	195.262	90.2002	1582.2	-78.6744	211.951	1529.48	58.8778	66.1699	1602.58	55.0833	11.964	1488.24	62.2816	241.476	1026.01	194.1	252.435	1030.72	-48.3316	54.0997	1070.09	115.536	54.2568	1066.71	20.5134	172.226	765.944	269.576	102.664	708.202	276.871	187.295	708.956	247.299	108.266	541.797	271.792	98.9978	526	160.641	193.821	777.74	-134.773	131.4	785.621	-146.955	143.969	714.64	-148.739	128.974	543.919	-145.167	106.979	526.135	-33.1683	22.1892	348.441	301.096	-0.837458	287.7	274.806	72.3067	316.303	292.151
66	0.325	89.4237	1582.34	195.269	90.1616	1582.21	-78.6294	211.929	1529.47	58.9193	66.128	1602.58	55.1607	11.9747	1488.21	62.3334	241.435	1025.98	194.095	252.403	1030.71	-48.3432	54.1337	1070.09	115.47	54.2176	1066.71	20.539	172.225	765.915	269.578	102.664	708.211	276.896	187.288	709.022	247.383	108.367	541.902	271.981	98.9593	525.983	160.672	193.754	777.618	-134.495	131.382	785.626	-146.941	143.952	714.693	-148.761	128.965	543.912	-145.169	106.986	526.133	-33.1527	22.1862	348.44	301.082	-0.835568	287.684	274.787	72.3206	316.314	292.127
67	0.33	89.4123	1582.33	195.31	90.158	1582.23	-78.5889	211.925	1529.47	58.9652	66.1065	1602.57	55.1621	11.9382	1488.25	62.3865	241.467	1026	194.088	252.364	1030.72	-48.3349	54.0839	1070.05	115.499	54.2172	1066.71	20.5321	172.211	765.928	269.58	102.674	708.198	276.906	187.322	708.964	247.29	108.383	541.908	271.982	98.9951	525.981	160.675	193.802	777.749	-134.774	131.415	785.649	-147.012	143.925	714.677	-148.739	128.958	543.903	-145.171	106.983	526.123	-33.1361	22.1671	348.423	301.134	-0.808939	287.668	274.756	72.3085	316.311	292.141
68	0.335	89.4159	1582.32	195.357	90.1308	1582.27	-78.5259	211.887	1529.46	59.0077	66.1155	1602.58	55.2079	11.9075	1488.23	62.4174	241.456	1025.99	194.085	252.387	1030.72	-48.3717	54.0738	1070.07	115.538	54.1957	1066.69	20.5296	172.218	765.943	269.576	102.693	708.184	276.909	187.298	708.938	247.299	108.442	542.019	272.306	98.955	525.969	160.671	193.795	777.756	-134.764	131.378	785.63	-146.972	143.98	714.652	-148.787	128.959	543.924	-145.179	106.982	526.136	-33.1439	22.1902	348.383	301.144	-0.811252	287.707	274.802	72.3351	316.33	292.151
69	0.34	89.4189	1582.3	195.383	90.1178	1582.28	-78.4846	211.892	1529.44	59.0521	66.1137	1602.6	55.2458	11.9159	1488.26	62.4499	241.463	1025.98	194.089	252.332	1030.71	-48.341	54.079	1070.06	115.54	54.1637	1066.7	20.5526	172.238	765.901	269.559	102.682	708.182	276.893	187.316	709.017	247.367	108.424	542.026	272.309	98.9257	525.985	160.661	193.726	777.618	-134.513	131.353	785.621	-146.927	143.932	714.683	-148.753	128.966	543.894	-145.166	106.945	526.148	-33.1329	22.1878	348.414	301.149	-0.796982	287.691	274.788	72.3286	316.318	292.162
70	0.345	89.3874	1582.3	195.42	90.1322	1582.31	-78.417	211.89	1529.45	59.0785	66.1058	1602.57	55.286	11.9045	1488.26	62.4802	241.459	1025.99	194.088	252.328	1030.74	-48.37	54.0691	1070.07	115.538	54.1489	1066.71	20.5515	172.234	765.924	269.572	102.673	708.163	276.913	187.308	709.011	247.349	108.391	541.914	272.001	99.0118	525.974	160.665	193.796	777.736	-134.775	131.374	785.674	-146.955	143.928	714.661	-148.753	128.948	543.916	-145.175	106.944	526.135	-33.1444	22.2104	348.372	301.117	-0.813666	287.701	274.804	72.3428	316.299	292.15
71	0.35	89.3622	1582.28	195.473	90.126	1582.35	-78.3919	211.878	1529.44	59.0994	66.1043	1602.55	55.2673	11.9045	1488.27	62.4895	241.458	1025.99	194.072	252.33	1030.75	-48.3425	54.0507	1070.06	115.552	54.1433	1066.7	20.5313	172.249	765.906	269.555	102.702	708.201	276.882	187.287	708.999	247.36	108.285	541.801	271.798	98.9967	526.005	160.659	193.757	777.75	-134.763	131.364	785.652	-146.985	143.973	714.672	-148.795	128.954	543.932	-145.17	106.911	526.128	-33.1637	22.1792	348.417	301.132	-0.786991	287.665	274.761	72.3475	316.306	292.141
72	0.355	89.3471	1582.26	195.512	90.1033	1582.34	-78.3333	211.874	1529.46	59.1577	66.1004	1602.56	55.3243	11.8728	1488.27	62.5055	241.443	1025.99	194.08	252.29	1030.74	-48.3379	54.0278	1070.04	115.546	54.1105	1066.69	20.5296	172.242	765.904	269.563	102.711	708.192	276.879	187.31	709.013	247.341	108.382	541.909	271.984	98.9122	526.004	160.65	193.736	777.767	-134.771	131.339	785.664	-146.979	143.904	714.681	-148.773	128.952	543.916	-145.171	106.929	526.156	-33.1578	22.2457	348.396	301.089	-0.810229	287.699	274.816	72.3393	316.319	292.148
73	0.36	89.3274	1582.24	195.515	90.1113	1582.38	-78.3083	211.858	1529.46	59.1715	66.0875	1602.56	55.3706	11.8819	1488.26	62.53	241.43	1025.98	194.066	252.311	1030.75	-48.3666	54.0127	1070.04	115.551	54.1174	1066.67	20.5368	172.222	765.888	269.533	102.708	708.177	276.893	187.31	709.014	247.322	108.385	541.932	271.978	98.9382	526.025	160.623	193.728	777.774	-134.784	131.352	785.675	-146.992	143.885	714.681	-148.8	128.926	543.931	-145.154	106.912	526.137	-33.1362	22.2122	348.391	301.147	-0.810971	287.694	274.824	72.3284	316.309	292.168
74	0.365	89.2947	1582.22	195.548	90.1009	1582.42	-78.2552	211.861	1529.45	59.229	66.0446	1602.55	55.408	11.8585	1488.13	62.6682	241.413	1025.96	194.043	252.263	1030.77	-48.3575	54.0274	1070.04	115.544	54.0854	1066.69	20.5283	172.25	765.898	269.547	102.726	708.175	276.896	187.307	709.008	247.283	108.357	541.906	272.009	98.9162	525.997	160.625	193.718	777.769	-134.803	131.324	785.655	-147.033	143.871	714.687	-148.782	128.919	543.942	-145.191	106.926	526.166	-33.1442	22.1801	348.401	301.159	-0.815709	287.682	274.81	72.3476	316.306	292.147
75	0.37	89.2859	1582.2	195.594	90.1028	1582.46	-78.2344	211.823	1529.45	59.2394	66.0828	1602.6	55.4326	11.8481	1488.15	62.6798	241.382	1025.97	194.05	252.241	1030.76	-48.3467	53.9853	1070.04	115.559	54.0968	1066.69	20.5462	172.266	765.892	269.529	102.694	708.158	276.939	187.318	708.907	247.167	108.431	542.012	272.294	98.8609	525.966	160.642	193.661	777.649	-134.556	131.316	785.646	-146.962	143.911	714.64	-148.602	128.922	543.926	-145.196	106.953	526.153	-33.1717	22.2031	348.4	301.102	-0.832099	287.647	274.794	72.3132	316.283	292.151
76	0.375	89.2503	1582.19	195.645	90.0547	1582.48	-78.1714	211.824	1529.44	59.2978	66.049	1602.58	55.5024	11.8135	1488.26	62.5858	241.387	1025.98	194.061	252.229	1030.77	-48.3371	53.9838	1070.02	115.564	54.0521	1066.69	20.5509	172.234	765.891	269.524	102.712	708.18	276.875	187.314	708.923	247.194	108.363	541.902	271.988	98.8755	525.988	160.626	193.668	777.774	-134.803	131.291	785.678	-146.997	143.872	714.712	-148.785	128.921	543.925	-145.2	106.932	526.129	-33.1585	22.1994	348.435	301.123	-0.825666	287.688	274.813	72.3136	316.301	292.158
77	0.38	89.2461	1582.16	195.68	90.0762	1582.49	-78.1102	211.813	1529.45	59.3188	66.0175	1602.57	55.5334	11.7691	1488.28	62.6295	241.364	1025.96	194.058	252.225	1030.78	-48.3543	53.9564	1070.03	115.582	54.0549	1066.7	20.5659	172.238	765.882	269.521	102.709	708.18	276.893	187.333	708.919	247.143	108.348	541.886	271.96	98.884	525.998	160.626	193.652	777.773	-134.791	131.288	785.677	-146.992	143.912	714.654	-148.609	128.888	543.935	-145.179	106.936	526.156	-33.1594	22.1973	348.421	301.131	-0.812908	287.671	274.8	72.3266	316.297	292.157
78	0.385	89.2027	1582.16	195.735	90.046	1582.52	-78.0553	211.792	1529.44	59.4044	65.9913	1602.57	55.6085	11.7636	1488.32	62.6404	241.366	1025.96	194.054	252.207	1030.82	-48.3477	53.9461	1070.01	115.57	54.0303	1066.7	20.5843	172.24	765.875	269.52	102.708	708.161	276.876	187.295	708.993	247.255	108.362	541.89	271.999	98.8944	526.015	160.627	193.675	777.805	-134.792	131.267	785.669	-146.994	143.884	714.626	-148.585	128.878	543.936	-145.204	106.952	526.161	-33.1542	22.1767	348.4	301.171	-0.838992	287.667	274.815	72.3356	316.288	292.159
